<svg width="382" height="382" viewBox="0 0 382 382" fill="none" xmlns="http://www.w3.org/2000/svg">
<rect x="191.555" y="381.844" width="270" height="270" transform="rotate(-135.189 191.555 381.844)" fill="#E8E8E8"/>
<rect x="192.367" y="367.56" width="250" height="250" transform="rotate(-135.189 192.367 367.56)" fill="#0D8383"/>
<rect x="156.821" y="332.701" width="199.895" height="199.895" transform="rotate(-135.189 156.821 332.701)" fill="#4E1B34" fill-opacity="0.4"/>
<rect x="123.056" y="298.393" width="152.301" height="152.301" transform="rotate(-135.189 123.056 298.393)" fill="#4E1B34" fill-opacity="0.6"/>
<rect x="89.2915" y="265.086" width="104.707" height="104.707" transform="rotate(-135.189 89.2915 265.086)" fill="#4E1B34"/>
<path d="M298.245 190.32C280.635 207.929 278.255 210.308 223.043 265.991C187.651 301.685 114.532 209.825 16.0129 191.735C116.438 150.808 173.428 67.7608 219.509 113.009C298.245 190.32 298.245 190.32 298.245 190.32Z" fill="#BBBBBB" fill-opacity="0.2"/>
</svg>
