<svg width="329" height="328" viewBox="0 0 329 328" fill="none" xmlns="http://www.w3.org/2000/svg">
<rect width="309.53" height="310.069" rx="57" transform="matrix(0.000337933 -1 1 0.000336717 7.24951 320.615)" fill="#1D3F52"/>
<rect width="247.494" height="247.925" transform="matrix(0.000337933 -1 1 0.000336717 6.87109 258.974)" fill="#4E1B34" fill-opacity="0.4"/>
<rect width="188.567" height="188.895" transform="matrix(0.000337933 -1 1 0.000336717 7.56445 199.38)" fill="#4E1B34" fill-opacity="0.6"/>
<rect width="129.64" height="129.865" transform="matrix(0.000337933 -1 1 0.000336717 7.37695 140.658)" fill="#4E1B34"/>
<path d="M254.868 259.166C254.868 259.166 254.868 259.166 129.368 259.166C75.3446 259.166 115.439 156.451 65.8123 76.0469C166.539 108.318 254.868 63.1065 254.868 132.166C254.868 259.166 254.868 259.166 254.868 259.166Z" fill="#BBBBBB" fill-opacity="0.2"/>
</svg>
